<svg width="100" height="100" viewBox="0 0 100 100" fill="none" xmlns="http://www.w3.org/2000/svg">
<rect width="100" height="100" rx="20" fill="url(#paint0_linear_6_3)"/>
<path d="M37.4282 32.6666V24.9546L29.8122 10.2666H34.5162L39.2522 19.8666H39.8282L44.5642 10.2666H49.2683L41.6523 24.9546V32.6666H37.4282ZM54.837 32.6666V10.2666H69.237V14.1066H59.061V19.4506H68.341V23.2906H59.061V28.8266H69.429V32.6666H54.837Z" fill="black"/>
<path d="M55 58.3333L53.7966 52.9166M33.3333 41.6666C34.5806 45.0846 36.8485 48.0364 39.8298 50.1221C42.8111 52.2078 46.3616 53.3264 50 53.3264C53.6384 53.3264 57.1889 52.2078 60.1701 50.1221C63.1514 48.0364 65.4194 45.0846 66.6666 41.6666M63.3333 53.3333L60.4566 49.9166M36.6666 53.3333L39.5433 49.9166M45 58.3333L46.2033 52.9166" stroke="black" stroke-width="4" stroke-linecap="round" stroke-linejoin="round"/>
<path d="M38.1051 89.7814C36.2705 89.7814 34.6918 89.4507 33.3691 88.7894C32.0678 88.1067 31.0651 87.1467 30.3611 85.9094C29.6785 84.6507 29.3371 83.168 29.3371 81.4614V66.9334H33.5611V81.5894C33.5611 82.9547 33.9451 84.032 34.7131 84.8214C35.5025 85.6107 36.6331 86.0054 38.1051 86.0054C39.5771 86.0054 40.6971 85.6107 41.4651 84.8214C42.2545 84.032 42.6491 82.9547 42.6491 81.5894V66.9334H46.8731V81.4614C46.8731 83.168 46.5211 84.6507 45.8171 85.9094C45.1345 87.1467 44.1318 88.1067 42.8091 88.7894C41.5078 89.4507 39.9398 89.7814 38.1051 89.7814ZM52.7571 89.3334L59.3171 78.0374L52.8211 66.9334H57.6211L62.0691 75.0294H62.6451L67.0931 66.9334H71.8931L65.3971 78.0374L71.9571 89.3334H67.1571L62.6451 81.0454H62.0691L57.5571 89.3334H52.7571Z" fill="black"/>
<defs>
<linearGradient id="paint0_linear_6_3" x1="50" y1="0" x2="50" y2="100" gradientUnits="userSpaceOnUse">
<stop stop-color="white"/>
<stop offset="1" stop-color="#EDE5E5"/>
</linearGradient>
</defs>
</svg>
